<svg width="63mm" height="88mm" version="1.1" viewBox="0 0 63 88" xmlns="http://www.w3.org/2000/svg" xmlns:xlink="http://www.w3.org/1999/xlink">
 <title>Red_back</title>
 <defs>
  <pattern id="pattern49643" patternTransform="matrix(.028544 0 0 .029552 1123.1 142.37)" xlink:href="#pattern5775"/>
  <pattern id="pattern5775" patternTransform="matrix(.033012 0 0 .033012 627.21 172.66)" xlink:href="#pattern5020"/>
  <pattern id="pattern5020" width="256" height="256" patternUnits="userSpaceOnUse">
   <g id="fullPattern" clip-path="url(#patternClipPath)">
    <g id="designBottom" transform="scale(2.56)">
     <rect width="100" height="100" color="#000000" fill="#950000"/>
    </g>
    <g id="designTop" transform="scale(2.56)">
     <rect transform="rotate(-45)" x="-26.529" y="21.385" width="22.002" height="22.002" rx="2.2002" ry="2.2002" fill="#fff" stroke-width=".16399"/>
     <rect transform="rotate(-45)" x="17.057" y="56.443" width="14.668" height="14.668" rx="1.4668" ry="1.4668" fill="#fff" stroke-width=".10933"/>
     <rect transform="rotate(-45)" x="-11.399" y="104.54" width="22.002" height="22.002" rx="2.2002" ry="2.2002" fill="#fff" stroke-width=".16399"/>
     <rect transform="rotate(-45)" x="-40.159" y="68.675" width="14.668" height="14.668" rx="1.4668" ry="1.4668" fill="#fff" stroke-width=".10933"/>
     <path d="m-31.567 79.481 102.59-102.59" fill="none" stroke="#fff" stroke-width="2.3438"/>
    </g>
    <g id="designBottomGenerator">
     <use transform="translate(-256,-256)" width="100%" height="100%" xlink:href="#designBottom"/>
     <use transform="translate(0,-256)" width="100%" height="100%" xlink:href="#designBottom"/>
     <use transform="translate(256,-256)" width="100%" height="100%" xlink:href="#designBottom"/>
     <use transform="translate(-256)" width="100%" height="100%" xlink:href="#designBottom"/>
     <use width="100%" height="100%" xlink:href="#designBottom"/>
     <use transform="translate(256)" width="100%" height="100%" xlink:href="#designBottom"/>
     <use transform="translate(-256,256)" width="100%" height="100%" xlink:href="#designBottom"/>
     <use transform="translate(0,256)" width="100%" height="100%" xlink:href="#designBottom"/>
     <use transform="translate(256,256)" width="100%" height="100%" xlink:href="#designBottom"/>
    </g>
    <g id="designTopGenerator">
     <use transform="translate(-256,-256)" width="100%" height="100%" xlink:href="#designTop"/>
     <use transform="translate(0,-256)" width="100%" height="100%" xlink:href="#designTop"/>
     <use transform="translate(256,-256)" width="100%" height="100%" xlink:href="#designTop"/>
     <use transform="translate(-256)" width="100%" height="100%" xlink:href="#designTop"/>
     <use width="100%" height="100%" xlink:href="#designTop"/>
     <use transform="translate(256)" width="100%" height="100%" xlink:href="#designTop"/>
     <use transform="translate(-256,256)" width="100%" height="100%" xlink:href="#designTop"/>
     <use transform="translate(0,256)" width="100%" height="100%" xlink:href="#designTop"/>
     <use transform="translate(256,256)" width="100%" height="100%" xlink:href="#designTop"/>
    </g>
   </g>
  </pattern>
  <clipPath id="patternClipPath">
   <rect id="clipPathRect" width="256" height="256" color="#000000" fill="#ff0"/>
  </clipPath>
 </defs>
 <g transform="matrix(1.0085 0 0 1.006 -1138.9 -147)">
  <g transform="translate(61.841 -17.613)">
   <g transform="translate(220.31 -197.59)">
    <rect x="847.19" y="361.32" width="62.472" height="87.473" rx="2.9916" ry="2.9916" fill="#fff"/>
   </g>
  </g>
  <rect x="1133.3" y="150.47" width="54.474" height="78.778" fill="url(#pattern49643)"/>
 </g>
</svg>
